<svg width="200" height="400" viewBox="0 0 200 400" xmlns="http://www.w3.org/2000/svg">
  <rect width="200" height="400" rx="32" fill="url(#g2)"/>
  <defs>
    <linearGradient id="g2" x1="0" y1="0" x2="0" y2="1">
      <stop offset="0%" stop-color="#5c6ef8"/>
      <stop offset="100%" stop-color="#7c5cfc"/>
    </linearGradient>
  </defs>
  <rect x="70" y="14" width="60" height="8" rx="4" fill="rgba(0,0,0,0.35)"/>
  <text x="20" y="50" font-family="Arial" font-size="9" fill="rgba(255,255,255,0.7)">Good Morning!</text>
  <text x="20" y="67" font-family="Arial" font-size="15" font-weight="bold" fill="white">Hello, Emma 👋</text>
  <!-- Progress card -->
  <rect x="14" y="78" width="172" height="50" rx="12" fill="rgba(255,255,255,0.2)"/>
  <text x="26" y="96" font-family="Arial" font-size="9" fill="rgba(255,255,255,0.8)">Today's Progress</text>
  <rect x="26" y="104" width="120" height="6" rx="3" fill="rgba(255,255,255,0.3)"/>
  <rect x="26" y="104" width="90" height="6" rx="3" fill="white"/>
  <text x="158" y="112" font-family="Arial" font-size="10" font-weight="bold" fill="white">75%</text>
  <text x="20" y="150" font-family="Arial" font-size="11" font-weight="bold" fill="white">My Tasks</text>
  <!-- Tasks -->
  <rect x="14" y="158" width="172" height="30" rx="8" fill="rgba(255,255,255,0.15)"/>
  <text x="26" y="177" font-family="Arial" font-size="10" fill="white">Workout</text>
  <circle cx="172" cy="173" r="8" fill="#5c6ef8"/>
  <rect x="14" y="194" width="172" height="30" rx="8" fill="rgba(255,255,255,0.15)"/>
  <text x="26" y="213" font-family="Arial" font-size="10" fill="white">Design Project</text>
  <circle cx="172" cy="209" r="8" fill="none" stroke="rgba(255,255,255,0.5)" stroke-width="2"/>
  <rect x="14" y="230" width="172" height="30" rx="8" fill="rgba(255,255,255,0.15)"/>
  <text x="26" y="249" font-family="Arial" font-size="10" fill="white">Read Book</text>
  <circle cx="172" cy="245" r="8" fill="#5c6ef8"/>
</svg>
