<svg width="200" height="400" viewBox="0 0 200 400" xmlns="http://www.w3.org/2000/svg">
  <rect width="200" height="400" rx="32" fill="#f7f8ff"/>
  <rect x="70" y="14" width="60" height="8" rx="4" fill="rgba(0,0,0,0.2)"/>
  <text x="20" y="55" font-family="Arial" font-size="14" font-weight="bold" fill="#1a1a2e">Statistics</text>
  <text x="20" y="72" font-family="Arial" font-size="10" fill="#888">This Week</text>
  <!-- Bars -->
  <rect x="22" y="130" width="18" height="40" rx="4" fill="#5c6ef8" opacity="0.6"/>
  <rect x="46" y="115" width="18" height="55" rx="4" fill="#5c6ef8" opacity="0.7"/>
  <rect x="70" y="100" width="18" height="70" rx="4" fill="#5c6ef8" opacity="0.8"/>
  <rect x="94" y="120" width="18" height="50" rx="4" fill="#5c6ef8" opacity="0.7"/>
  <rect x="118" y="90" width="18" height="80" rx="4" fill="#5c6ef8"/>
  <rect x="142" y="108" width="18" height="62" rx="4" fill="#5c6ef8" opacity="0.75"/>
  <rect x="166" y="85" width="18" height="85" rx="4" fill="#5c6ef8"/>
  <line x1="20" y1="175" x2="185" y2="175" stroke="#eee" stroke-width="1"/>
  <text x="20" y="195" font-family="Arial" font-size="11" font-weight="bold" fill="#1a1a2e">Categories</text>
  <!-- Category bars -->
  <text x="20" y="215" font-family="Arial" font-size="9" fill="#555">Work</text>
  <text x="175" y="215" text-anchor="end" font-family="Arial" font-size="9" fill="#555">40%</text>
  <rect x="20" y="219" width="160" height="5" rx="2.5" fill="#eee"/>
  <rect x="20" y="219" width="64" height="5" rx="2.5" fill="#5c6ef8"/>
  <text x="20" y="240" font-family="Arial" font-size="9" fill="#555">Health</text>
  <text x="175" y="240" text-anchor="end" font-family="Arial" font-size="9" fill="#555">30%</text>
  <rect x="20" y="244" width="160" height="5" rx="2.5" fill="#eee"/>
  <rect x="20" y="244" width="48" height="5" rx="2.5" fill="#22c55e"/>
  <text x="20" y="265" font-family="Arial" font-size="9" fill="#555">Personal</text>
  <text x="175" y="265" text-anchor="end" font-family="Arial" font-size="9" fill="#555">20%</text>
  <rect x="20" y="269" width="160" height="5" rx="2.5" fill="#eee"/>
  <rect x="20" y="269" width="32" height="5" rx="2.5" fill="#f59e0b"/>
  <text x="20" y="290" font-family="Arial" font-size="9" fill="#555">Other</text>
  <text x="175" y="290" text-anchor="end" font-family="Arial" font-size="9" fill="#555">10%</text>
  <rect x="20" y="294" width="160" height="5" rx="2.5" fill="#eee"/>
  <rect x="20" y="294" width="16" height="5" rx="2.5" fill="#e879f9"/>
</svg>
