<svg width="200" height="400" viewBox="0 0 200 400" xmlns="http://www.w3.org/2000/svg">
  <rect width="200" height="400" rx="32" fill="#f7f8ff"/>
  <rect x="70" y="14" width="60" height="8" rx="4" fill="rgba(0,0,0,0.2)"/>
  <text x="20" y="55" font-family="Arial" font-size="14" font-weight="bold" fill="#1a1a2e">My Tasks</text>
  <rect x="20" y="65" width="40" height="16" rx="8" fill="#5c6ef8"/>
  <text x="40" y="77" text-anchor="middle" font-family="Arial" font-size="9" fill="white">All</text>
  <rect x="66" y="65" width="40" height="16" rx="8" fill="transparent"/>
  <text x="86" y="77" text-anchor="middle" font-family="Arial" font-size="9" fill="#888">Today</text>
  <rect x="112" y="65" width="40" height="16" rx="8" fill="transparent"/>
  <text x="132" y="77" text-anchor="middle" font-family="Arial" font-size="9" fill="#888">Done</text>
  <!-- Task rows -->
  <line x1="20" y1="100" x2="180" y2="100" stroke="#eee" stroke-width="1"/>
  <text x="20" y="120" font-family="Arial" font-size="11" fill="#1a1a2e">Workout</text>
  <circle cx="175" cy="116" r="7" fill="#22c55e"/>
  <line x1="20" y1="135" x2="180" y2="135" stroke="#eee" stroke-width="1"/>
  <text x="20" y="155" font-family="Arial" font-size="11" fill="#1a1a2e">Design Project</text>
  <circle cx="175" cy="151" r="7" fill="none" stroke="#ccc" stroke-width="1.5"/>
  <line x1="20" y1="170" x2="180" y2="170" stroke="#eee" stroke-width="1"/>
  <text x="20" y="190" font-family="Arial" font-size="11" fill="#1a1a2e">Read Book</text>
  <circle cx="175" cy="186" r="7" fill="#22c55e"/>
  <line x1="20" y1="205" x2="180" y2="205" stroke="#eee" stroke-width="1"/>
  <text x="20" y="225" font-family="Arial" font-size="11" fill="#1a1a2e">Meditation</text>
  <circle cx="175" cy="221" r="7" fill="none" stroke="#ccc" stroke-width="1.5"/>
  <line x1="20" y1="240" x2="180" y2="240" stroke="#eee" stroke-width="1"/>
  <text x="20" y="260" font-family="Arial" font-size="11" fill="#1a1a2e">Grocery Shopping</text>
  <circle cx="175" cy="256" r="7" fill="#22c55e"/>
  <!-- FAB -->
  <circle cx="100" cy="340" r="22" fill="#5c6ef8"/>
  <text x="100" y="347" text-anchor="middle" font-family="Arial" font-size="22" fill="white">+</text>
</svg>
